<mxfile host="app.diagrams.net" modified="2024-04-06T07:48:20.018Z" agent="Mozilla/5.0 (Windows NT 10.0; Win64; x64) AppleWebKit/537.36 (KHTML, like Gecko) Chrome/122.0.0.0 Safari/537.36 OPR/108.0.0.0" etag="8StJVrPxXL1kNKXzWIEk" version="24.2.2" type="github">
  <diagram name="Page-1" id="_z-S2eYyg7KoU0-zj3kx">
    <mxGraphModel dx="1992" dy="1118" grid="1" gridSize="10" guides="1" tooltips="1" connect="1" arrows="1" fold="1" page="1" pageScale="1" pageWidth="850" pageHeight="1100" math="0" shadow="0">
      <root>
        <mxCell id="0" />
        <mxCell id="1" parent="0" />
        <mxCell id="zX33ZX6iDfufDh_PCTq0-1" value="" style="ellipse;html=1;shape=startState;fillColor=#000000;strokeColor=#ff0000;" vertex="1" parent="1">
          <mxGeometry x="410" y="50" width="30" height="30" as="geometry" />
        </mxCell>
        <mxCell id="zX33ZX6iDfufDh_PCTq0-2" value="" style="edgeStyle=orthogonalEdgeStyle;html=1;verticalAlign=bottom;endArrow=open;endSize=8;strokeColor=#ff0000;rounded=0;" edge="1" source="zX33ZX6iDfufDh_PCTq0-1" parent="1">
          <mxGeometry relative="1" as="geometry">
            <mxPoint x="425" y="140" as="targetPoint" />
          </mxGeometry>
        </mxCell>
        <mxCell id="zX33ZX6iDfufDh_PCTq0-5" value="User" style="edgeLabel;html=1;align=center;verticalAlign=middle;resizable=0;points=[];" vertex="1" connectable="0" parent="zX33ZX6iDfufDh_PCTq0-2">
          <mxGeometry x="-0.1868" y="-1" relative="1" as="geometry">
            <mxPoint as="offset" />
          </mxGeometry>
        </mxCell>
        <mxCell id="zX33ZX6iDfufDh_PCTq0-3" value="Select medicine" style="rounded=1;whiteSpace=wrap;html=1;arcSize=40;fontColor=#000000;fillColor=#ffffc0;strokeColor=#ff0000;" vertex="1" parent="1">
          <mxGeometry x="365" y="140" width="120" height="40" as="geometry" />
        </mxCell>
        <mxCell id="zX33ZX6iDfufDh_PCTq0-4" value="" style="edgeStyle=orthogonalEdgeStyle;html=1;verticalAlign=bottom;endArrow=open;endSize=8;strokeColor=#ff0000;rounded=0;" edge="1" source="zX33ZX6iDfufDh_PCTq0-3" parent="1">
          <mxGeometry relative="1" as="geometry">
            <mxPoint x="425" y="240" as="targetPoint" />
          </mxGeometry>
        </mxCell>
        <mxCell id="zX33ZX6iDfufDh_PCTq0-6" value="Proceed to payment" style="rounded=1;whiteSpace=wrap;html=1;arcSize=40;fontColor=#000000;fillColor=#ffffc0;strokeColor=#ff0000;" vertex="1" parent="1">
          <mxGeometry x="365" y="240" width="120" height="40" as="geometry" />
        </mxCell>
        <mxCell id="zX33ZX6iDfufDh_PCTq0-7" value="" style="edgeStyle=orthogonalEdgeStyle;html=1;verticalAlign=bottom;endArrow=open;endSize=8;strokeColor=#ff0000;rounded=0;" edge="1" source="zX33ZX6iDfufDh_PCTq0-6" parent="1">
          <mxGeometry relative="1" as="geometry">
            <mxPoint x="425" y="340" as="targetPoint" />
          </mxGeometry>
        </mxCell>
        <mxCell id="zX33ZX6iDfufDh_PCTq0-8" value="Show payment method" style="rounded=1;whiteSpace=wrap;html=1;arcSize=40;fontColor=#000000;fillColor=#ffffc0;strokeColor=#ff0000;" vertex="1" parent="1">
          <mxGeometry x="365" y="340" width="120" height="40" as="geometry" />
        </mxCell>
        <mxCell id="zX33ZX6iDfufDh_PCTq0-9" value="" style="edgeStyle=orthogonalEdgeStyle;html=1;verticalAlign=bottom;endArrow=open;endSize=8;strokeColor=#ff0000;rounded=0;" edge="1" source="zX33ZX6iDfufDh_PCTq0-8" parent="1">
          <mxGeometry relative="1" as="geometry">
            <mxPoint x="425" y="440" as="targetPoint" />
          </mxGeometry>
        </mxCell>
        <mxCell id="zX33ZX6iDfufDh_PCTq0-23" style="edgeStyle=orthogonalEdgeStyle;rounded=0;orthogonalLoop=1;jettySize=auto;html=1;strokeColor=#D73737;" edge="1" parent="1" source="zX33ZX6iDfufDh_PCTq0-10" target="zX33ZX6iDfufDh_PCTq0-21">
          <mxGeometry relative="1" as="geometry" />
        </mxCell>
        <mxCell id="zX33ZX6iDfufDh_PCTq0-10" value="Select payment method" style="rounded=1;whiteSpace=wrap;html=1;arcSize=40;fontColor=#000000;fillColor=#ffffc0;strokeColor=#ff0000;" vertex="1" parent="1">
          <mxGeometry x="365" y="440" width="120" height="40" as="geometry" />
        </mxCell>
        <mxCell id="zX33ZX6iDfufDh_PCTq0-15" value="Process payment" style="rounded=1;whiteSpace=wrap;html=1;arcSize=40;fontColor=#000000;fillColor=#ffffc0;strokeColor=#ff0000;" vertex="1" parent="1">
          <mxGeometry x="570" y="710" width="120" height="40" as="geometry" />
        </mxCell>
        <mxCell id="zX33ZX6iDfufDh_PCTq0-30" style="edgeStyle=orthogonalEdgeStyle;rounded=0;orthogonalLoop=1;jettySize=auto;html=1;entryX=1;entryY=0.5;entryDx=0;entryDy=0;strokeColor=#D73737;" edge="1" parent="1" source="zX33ZX6iDfufDh_PCTq0-18" target="zX33ZX6iDfufDh_PCTq0-29">
          <mxGeometry relative="1" as="geometry" />
        </mxCell>
        <mxCell id="zX33ZX6iDfufDh_PCTq0-18" value="Confirmation message" style="rounded=1;whiteSpace=wrap;html=1;arcSize=40;fontColor=#000000;fillColor=#ffffc0;strokeColor=#ff0000;" vertex="1" parent="1">
          <mxGeometry x="580" y="825" width="120" height="40" as="geometry" />
        </mxCell>
        <mxCell id="zX33ZX6iDfufDh_PCTq0-21" value="Enter details of payment" style="rounded=1;whiteSpace=wrap;html=1;arcSize=40;fontColor=#000000;fillColor=#ffffc0;strokeColor=#ff0000;" vertex="1" parent="1">
          <mxGeometry x="365" y="510" width="120" height="40" as="geometry" />
        </mxCell>
        <mxCell id="zX33ZX6iDfufDh_PCTq0-22" value="" style="edgeStyle=orthogonalEdgeStyle;html=1;verticalAlign=bottom;endArrow=open;endSize=8;strokeColor=#ff0000;rounded=0;" edge="1" source="zX33ZX6iDfufDh_PCTq0-21" parent="1">
          <mxGeometry relative="1" as="geometry">
            <mxPoint x="425" y="610" as="targetPoint" />
          </mxGeometry>
        </mxCell>
        <mxCell id="zX33ZX6iDfufDh_PCTq0-24" value="Show a confirm payment message" style="rounded=1;whiteSpace=wrap;html=1;arcSize=40;fontColor=#000000;fillColor=#ffffc0;strokeColor=#ff0000;" vertex="1" parent="1">
          <mxGeometry x="370" y="610" width="120" height="40" as="geometry" />
        </mxCell>
        <mxCell id="zX33ZX6iDfufDh_PCTq0-25" value="" style="edgeStyle=orthogonalEdgeStyle;html=1;verticalAlign=bottom;endArrow=open;endSize=8;strokeColor=#ff0000;rounded=0;" edge="1" source="zX33ZX6iDfufDh_PCTq0-24" parent="1">
          <mxGeometry relative="1" as="geometry">
            <mxPoint x="430" y="710" as="targetPoint" />
          </mxGeometry>
        </mxCell>
        <mxCell id="zX33ZX6iDfufDh_PCTq0-26" value="Condition" style="rhombus;whiteSpace=wrap;html=1;fontColor=#000000;fillColor=#ffffc0;strokeColor=#ff0000;" vertex="1" parent="1">
          <mxGeometry x="390" y="710" width="80" height="40" as="geometry" />
        </mxCell>
        <mxCell id="zX33ZX6iDfufDh_PCTq0-27" value="yes" style="edgeStyle=orthogonalEdgeStyle;html=1;align=left;verticalAlign=bottom;endArrow=open;endSize=8;strokeColor=#ff0000;rounded=0;" edge="1" source="zX33ZX6iDfufDh_PCTq0-26" parent="1">
          <mxGeometry x="-1" relative="1" as="geometry">
            <mxPoint x="570" y="730" as="targetPoint" />
          </mxGeometry>
        </mxCell>
        <mxCell id="zX33ZX6iDfufDh_PCTq0-28" value="no" style="edgeStyle=orthogonalEdgeStyle;html=1;align=left;verticalAlign=top;endArrow=open;endSize=8;strokeColor=#ff0000;rounded=0;" edge="1" source="zX33ZX6iDfufDh_PCTq0-26" parent="1" target="zX33ZX6iDfufDh_PCTq0-29">
          <mxGeometry x="-1" relative="1" as="geometry">
            <mxPoint x="430" y="810" as="targetPoint" />
          </mxGeometry>
        </mxCell>
        <mxCell id="zX33ZX6iDfufDh_PCTq0-29" value="" style="ellipse;html=1;shape=endState;fillColor=#000000;strokeColor=#ff0000;" vertex="1" parent="1">
          <mxGeometry x="415" y="830" width="30" height="30" as="geometry" />
        </mxCell>
        <mxCell id="zX33ZX6iDfufDh_PCTq0-33" style="edgeStyle=orthogonalEdgeStyle;rounded=0;orthogonalLoop=1;jettySize=auto;html=1;entryX=0.412;entryY=0.05;entryDx=0;entryDy=0;entryPerimeter=0;strokeColor=#D73737;" edge="1" parent="1" source="zX33ZX6iDfufDh_PCTq0-15" target="zX33ZX6iDfufDh_PCTq0-18">
          <mxGeometry relative="1" as="geometry" />
        </mxCell>
      </root>
    </mxGraphModel>
  </diagram>
</mxfile>
